<?xml version="1.0" encoding="UTF-8" standalone="no"?>
<svg
   xmlns:dc="http://purl.org/dc/elements/1.1/"
   xmlns:cc="http://creativecommons.org/ns#"
   xmlns:rdf="http://www.w3.org/1999/02/22-rdf-syntax-ns#"
   xmlns:svg="http://www.w3.org/2000/svg"
   xmlns="http://www.w3.org/2000/svg"
   xmlns:sodipodi="http://sodipodi.sourceforge.net/DTD/sodipodi-0.dtd"
   xmlns:inkscape="http://www.inkscape.org/namespaces/inkscape"
   width="6.67mm"
   height="6.67mm"
   viewBox="0 0 6.67 6.67"
   version="1.1"
   id="svg900"
   inkscape:version="1.0.1 (c497b03c, 2020-09-10)"
   sodipodi:docname="logo-small.svg">
  <defs
     id="defs894" />
  <sodipodi:namedview
     id="base"
     pagecolor="#ffffff"
     bordercolor="#666666"
     borderopacity="1.0"
     inkscape:pageopacity="0.0"
     inkscape:pageshadow="2"
     inkscape:zoom="15.8"
     inkscape:cx="16.6"
     inkscape:cy="15"
     inkscape:document-units="mm"
     inkscape:current-layer="layer1"
     inkscape:document-rotation="0"
     showgrid="false"
     inkscape:window-width="1252"
     inkscape:window-height="847"
     inkscape:window-x="0"
     inkscape:window-y="25"
     inkscape:window-maximized="0" />
  <metadata
     id="metadata897">
    <rdf:RDF>
      <cc:Work
         rdf:about="">
        <dc:format>image/svg+xml</dc:format>
        <dc:type
           rdf:resource="http://purl.org/dc/dcmitype/StillImage" />
        <dc:title></dc:title>
      </cc:Work>
    </rdf:RDF>
  </metadata>
  <g
     inkscape:label="Layer 1"
     inkscape:groupmode="layer"
     id="layer1"
     transform="translate(-52.6,-48.8)">
    <path
       class="c"
       d="m 55.8,51 h 0.3 a 0.307,0.307 0 0 1 0.3,0.3 0.302,0.302 0 0 1 -0.1,0.2 v 0 a 1.68,1.68 0 0 0 -0.1,0.3 0.341,0.341 0 0 1 -0.3,0.3 0.336,0.336 0 0 1 -0.3,-0.3 1.49,1.49 0 0 0 -0.1,-0.3 v 0 a 0.307,0.307 0 0 1 0.1,-0.4 0.294,0.294 0 0 1 0.2,0 z"
       id="path877"
       style="fill:#808285;fill-opacity:1;fill-rule:evenodd;stroke:#283862;stroke-width:0.373062px" />
    <path
       class="c"
       d="m 55,50.1 h 1.8 a 0.265,0.265 0 0 1 0.3,0.3 0.241,0.241 0 0 1 -0.1,0.2 v 0 A 0.963,0.963 0 0 0 56.7,51 0.45,0.45 0 0 1 56.3,51.3 H 55.5 A 0.447,0.447 0 0 1 55.1,51 0.841,0.841 0 0 0 54.8,50.6 v 0 a 0.249,0.249 0 0 1 0,-0.4 0.241,0.241 0 0 1 0.2,-0.1 z"
       id="path879"
       style="fill:#808285;fill-opacity:1;fill-rule:evenodd;stroke:#283862;stroke-width:0.373062px" />
    <rect
       class="d"
       x="54.3"
       y="49"
       width="3.15"
       height="1.35"
       rx="0.45"
       id="rect881"
       style="fill:#808285;fill-opacity:1;stroke:#283862;stroke-width:0.373062px" />
    <rect
       class="e"
       x="52.8"
       y="49"
       width="6.3"
       height="6.3"
       rx="1.35"
       id="rect883"
       style="fill:none;stroke:#283862;stroke-width:0.373062px" />
    <circle
       class="a"
       cx="54.2"
       cy="54.1"
       r="0.225"
       id="circle885"
       style="fill:#283862;stroke-width:0.264583" />
    <circle
       class="a"
       cx="57.4"
       cy="53.6"
       r="0.225"
       id="circle887"
       style="fill:#283862;stroke-width:0.264583" />
    <circle
       class="f"
       cx="57.9"
       cy="54.1"
       r="0.225"
       id="circle889"
       style="fill:#808285;fill-opacity:1;stroke-width:0.264583" />
    <circle
       class="f"
       cx="55.3"
       cy="53.4"
       r="0.225"
       id="circle891"
       style="fill:#808285;fill-opacity:1;stroke-width:0.264583" />
    <path
       id="line893"
       style="fill:none;fill-opacity:1;stroke:#808285;stroke-width:0.373062px;stroke-linecap:round;stroke-opacity:1"
       d="m 55.9,52.8 c 0,0.6 0,1.1 0,1.6" />
    <line
       class="h"
       x1="55.3"
       y1="54.7"
       x2="54.6"
       y2="54.5"
       id="line895"
       style="fill:none;stroke:#808285;stroke-width:0.185208px;stroke-linecap:round;stroke-opacity:1" />
    <line
       class="i"
       x1="55.3"
       y1="54.3"
       x2="54.9"
       y2="53.8"
       id="line897"
       style="fill:none;stroke:#283862;stroke-width:0.185208px;stroke-linecap:round" />
    <line
       class="h"
       x1="56.5"
       y1="54.3"
       x2="56.7"
       y2="53.6"
       id="line899"
       style="fill:none;stroke:#808285;stroke-width:0.185208px;stroke-linecap:round;stroke-opacity:1" />
    <line
       class="i"
       x1="56.9"
       y1="54.3"
       x2="57.2"
       y2="54"
       id="line901"
       style="fill:none;stroke:#283862;stroke-width:0.185208px;stroke-linecap:round" />
    <line
       class="h"
       x1="57.4"
       y1="54.5"
       x2="56.5"
       y2="54.8"
       id="line903"
       style="fill:none;stroke:#808285;stroke-width:0.185208px;stroke-linecap:round;stroke-opacity:1" />
  </g>
</svg>
