<?xml version="1.0" encoding="UTF-8" standalone="no"?>
<svg
   xmlns:dc="http://purl.org/dc/elements/1.1/"
   xmlns:cc="http://creativecommons.org/ns#"
   xmlns:rdf="http://www.w3.org/1999/02/22-rdf-syntax-ns#"
   xmlns:svg="http://www.w3.org/2000/svg"
   xmlns="http://www.w3.org/2000/svg"
   xmlns:sodipodi="http://sodipodi.sourceforge.net/DTD/sodipodi-0.dtd"
   xmlns:inkscape="http://www.inkscape.org/namespaces/inkscape"
   viewBox="0 0 116.17 25.25"
   version="1.1"
   id="svg905"
   sodipodi:docname="logo.svg"
   inkscape:version="1.0.1 (c497b03c, 2020-09-10)"
   inkscape:export-filename="/Users/rlew/Desktop/logo.png"
   inkscape:export-xdpi="951"
   inkscape:export-ydpi="951">
  <metadata
     id="metadata909">
    <rdf:RDF>
      <cc:Work
         rdf:about="">
        <dc:format>image/svg+xml</dc:format>
        <dc:type
           rdf:resource="http://purl.org/dc/dcmitype/StillImage" />
      </cc:Work>
    </rdf:RDF>
  </metadata>
  <sodipodi:namedview
     pagecolor="#ffffff"
     bordercolor="#666666"
     borderopacity="1"
     objecttolerance="10"
     gridtolerance="10"
     guidetolerance="10"
     inkscape:pageopacity="0"
     inkscape:pageshadow="2"
     inkscape:window-width="1388"
     inkscape:window-height="699"
     id="namedview907"
     showgrid="false"
     inkscape:zoom="20.4"
     inkscape:cx="16"
     inkscape:cy="11.1"
     inkscape:window-x="16"
     inkscape:window-y="105"
     inkscape:window-maximized="0"
     inkscape:current-layer="svg905"
     inkscape:document-rotation="0" />
  <defs
     id="defs835">
    <style
       id="style833">.a{fill:#283862;}.b{fill:#808285;}.c,.d{fill:#ededee;}.c,.d,.e,.i{stroke:#283862;}.c,.d,.e,.g{stroke-width:1.41px;}.c{fill-rule:evenodd;}.e,.g,.h,.i{fill:none;}.f{fill:#a7acb8;}.g,.h{stroke:#a7acb8;}.g,.h,.i{stroke-linecap:round;}.h,.i{stroke-width:0.7px;}</style>
  </defs>
  <path
     class="a"
     d="M30.69.9h5.52c3.56,0,5.16,2.12,5.16,5,0,3.22-2.12,4.82-5.4,4.82h-1.6V15.1H30.69Zm4.82,6.58c1.22,0,1.92-.56,1.92-1.62,0-.88-.54-1.62-1.92-1.62H34.37V7.48Z"
     id="path837" />
  <path
     class="a"
     d="M43.37.9h5.68c3.58,0,5.18,2.12,5.18,5a4.37,4.37,0,0,1-2.44,4.24L55,15.1H50.61l-2.68-4.34h-.88V15.1H43.37Zm5,6.58c1.2,0,1.88-.56,1.88-1.62,0-.88-.5-1.62-1.88-1.62H47.05V7.48Z"
     id="path839" />
  <path
     class="a"
     d="M56.83.9h9.44V4.28H60.51V6.42H65V9.66h-4.5v2.06h6.18V15.1H56.83Z"
     id="path841" />
  <path
     class="a"
     d="m 68,13 2.2,-2.6 c 0.8,0.9 2,1.5 3.2,1.6 0.9,0 1.3,-0.5 1.3,-0.9 0,-0.5 -0.3,-0.9 -1.8,-1.34 C 70.7,8.98 68.5,7.05 68.5,5 c 0,-2.42 2,-4.24 4.8,-4.3 1.8,-0.02 3.6,0.84 5,1.9 l -2.1,2.7 c -1,-0.72 -1.5,-1.14 -2.5,-1.26 -0.7,0 -1.1,0.53 -1.1,1.03 0,0.5 0.2,0.94 1.6,1.37 2.3,0.69 4.4,1.8 4.4,4.16 0,3.5 -3,4.7 -5.3,4.7 -2,0 -3.9,-0.8 -5.3,-2.3 z"
     id="path843"
     sodipodi:nodetypes="ccsssssccsssssc" />
  <path
     class="a"
     d="M95.33,4.28H91.78V.9h11V4.28H99.23V15.1h-3.9Z"
     id="path847" />
  <path
     class="a"
     d="M107.39.9H111l5.14,14.2h-4l-.72-2.3h-4.56l-.73,2.3h-4Zm3.12,8.72-1.28-4.1h0l-1.28,4.1Z"
     id="path849" />
  <path
     class="b"
     d="m 30.6,19.5 h 0.8 l 1.7,3 v 0 l 1.6,-3 h 0.9 v 5 h -0.9 v -3.3 0 l -1.4,2.3 h -0.5 l -1.4,-2.3 v 0 3.3 h -0.8 z"
     id="path851" />
  <path
     class="b"
     d="m 38.4,19.5 h 0.8 l 1.9,5 h -0.9 l -0.4,-1 h -2 l -0.3,1 h -0.9 z m 1.2,3.2 -0.8,-2.2 v 0 l -0.7,2.2 z"
     id="path853" />
  <path
     class="b"
     d="m 42.1,19.5 h 0.8 l 2.4,3.6 v 0 -3.6 h 0.9 v 5 H 45.3 L 42.9,21 v 0 3.5 h -0.8 z"
     id="path855" />
  <path
     class="b"
     d="m 52.9,19.5 h 3.2 v 0.8 h -2.4 v 1.5 h 2 v 0.7 h -2 v 2 h -0.8 z"
     id="path859" />
  <path
     class="b"
     d="M 58.1,19.5 H 59 l 1.8,5 H 60 l -0.4,-1 h -2 l -0.4,1 h -0.9 z m 1.2,3.2 -0.7,-2.2 v 0 l -0.8,2.2 z"
     id="path861" />
  <path
     class="b"
     d="m 61.3,22 a 2.39,2.39 0 0 1 2.5,-2.5 2.52,2.52 0 0 1 2,0.9 l -0.6,0.5 a 1.66,1.66 0 0 0 -1.3,-0.6 1.61,1.61 0 0 0 -1.6,1.7 1.6,1.6 0 0 0 1.6,1.7 1.72,1.72 0 0 0 1.3,-0.6 l 0.6,0.5 a 2.42,2.42 0 0 1 -2,0.9 2.38,2.38 0 0 1 -2.5,-2.5 z"
     id="path863" />
  <path
     class="b"
     d="m 67.9,20.3 h -1.4 v -0.8 h 3.7 v 0.8 h -1.5 v 4.2 h -0.8 z"
     id="path865" />
  <path
     class="b"
     d="m 71.2,19.5 h 0.9 v 3 c 0,0.8 0.5,1.3 1.2,1.3 0.7,0 1.1,-0.5 1.1,-1.3 v -3 h 0.8 v 3 c 0,2.7 -4,2.7 -4,0 z"
     id="path867"
     sodipodi:nodetypes="ccsssccscc"
     style="stroke-width:1.00566" />
  <path
     class="b"
     d="m 76.4,19.5 h 1.9 a 1.51,1.51 0 0 1 1.7,1.6 1.44,1.44 0 0 1 -1.1,1.5 l 1.3,1.9 h -1 L 78,22.7 h -0.7 v 1.8 h -0.9 z m 1.7,2.4 c 0.7,0 1,-0.3 1,-0.8 0,-0.5 -0.3,-0.9 -1,-0.9 h -0.8 v 1.7 z"
     id="path869" />
  <path
     class="b"
     d="m 81.3,19.5 h 0.9 v 5 h -0.9 z"
     id="path871" />
  <path
     class="b"
     d="m 83.6,19.5 h 0.8 l 2.5,3.6 v 0 -3.6 h 0.8 v 5 H 86.9 L 84.5,21 v 0 3.5 h -0.9 z"
     id="path873" />
  <path
     class="b"
     d="m 88.9,22 a 2.39,2.39 0 0 1 2.5,-2.5 2.65,2.65 0 0 1 2,0.8 l -0.6,0.5 a 1.85,1.85 0 0 0 -1.4,-0.5 1.6,1.6 0 0 0 -1.6,1.7 1.61,1.61 0 0 0 1.6,1.8 1.93,1.93 0 0 0 1.1,-0.4 v -0.8 h -1.2 v -0.8 h 2 v 2.1 a 3.11,3.11 0 0 1 -2,0.7 2.37,2.37 0 0 1 -2.4,-2.6 z"
     id="path875" />
  <path
     class="c"
     d="M12.05,8.37h1.17a1.16,1.16,0,0,1,1.16,1.16,1.14,1.14,0,0,1-.14.54h0a6.36,6.36,0,0,0-.33,1.45,1.29,1.29,0,0,1-1.29,1.1,1.27,1.27,0,0,1-1.26-1.1A5.62,5.62,0,0,0,11,10.07h0a1.16,1.16,0,0,1,.48-1.57A1.11,1.11,0,0,1,12.05,8.37Z"
     id="path877"
     style="fill:#808285;fill-opacity:1" />
  <path
     class="c"
     d="m 9.2,5 h 6.9 a 1,1 0 0 1 1,1 0.91,0.91 0 0 1 -0.4,0.75 v 0 a 3.64,3.64 0 0 0 -0.9,1.46 1.7,1.7 0 0 1 -1.6,1.1 H 11 A 1.69,1.69 0 0 1 9.4,8.18 3.18,3.18 0 0 0 8.59,6.75 v 0 A 0.94,0.94 0 0 1 8.41,5.43 0.91,0.91 0 0 1 9.2,5 Z"
     id="path879"
     style="fill:#808285;fill-opacity:1" />
  <rect
     class="d"
     x="6.66"
     y="0.7"
     width="11.92"
     height="5.11"
     rx="1.7"
     id="rect881"
     style="fill:#808285;fill-opacity:1" />
  <rect
     class="e"
     x="0.7"
     y="0.7"
     width="23.84"
     height="23.84"
     rx="5.11"
     id="rect883" />
  <circle
     class="a"
     cx="6.24"
     cy="19.86"
     r="0.85"
     id="circle885" />
  <circle
     class="a"
     cx="18.16"
     cy="18.16"
     r="0.85"
     id="circle887" />
  <circle
     class="f"
     cx="20.2"
     cy="20.2"
     r="0.85"
     id="circle889"
     style="fill:#808285;fill-opacity:1" />
  <circle
     class="f"
     cx="10.5"
     cy="17.31"
     r="0.85"
     id="circle891"
     style="fill:#808285;fill-opacity:1" />
  <path
     id="line893"
     style="fill:none;fill-opacity:1;stroke:#808285;stroke-width:1.40999999999999992px;stroke-linecap:round;stroke-opacity:1"
     d="m 12.6,15.2 c 0,2 0,3.9 0,5.9" />
  <line
     class="h"
     x1="10.5"
     y1="22.42"
     x2="7.68"
     y2="21.73"
     id="line895"
     style="stroke:#808285;stroke-opacity:1" />
  <line
     class="i"
     x1="10.5"
     y1="20.71"
     x2="8.79"
     y2="19.01"
     id="line897" />
  <line
     class="h"
     x1="14.72"
     y1="20.59"
     x2="15.61"
     y2="18.16"
     id="line899"
     style="stroke:#808285;stroke-opacity:1" />
  <line
     class="i"
     x1="16.46"
     y1="20.71"
     x2="17.48"
     y2="19.61"
     id="line901" />
  <line
     class="h"
     x1="18.16"
     y1="21.57"
     x2="14.73"
     y2="22.49"
     id="line903"
     style="stroke:#808285;stroke-opacity:1" />
  <path
     class="a"
     d="m 79.9,13 2.2,-2.6 c 0.8,0.9 2,1.5 3.2,1.6 0.9,0 1.3,-0.5 1.3,-0.9 0,-0.5 -0.3,-0.9 -1.8,-1.37 -2.2,-0.8 -4.4,-2.69 -4.4,-4.74 0,-2.42 2,-4.229 4.8,-4.289 1.8,0 3.6,0.829 5,1.889 l -2.1,2.7 c -1,-0.72 -1.5,-1.14 -2.5,-1.26 -0.7,0 -1.1,0.53 -1.1,1.03 0,0.5 0.2,0.94 1.6,1.37 2.3,0.69 4.4,1.8 4.4,4.17 0,3.5 -3,4.7 -5.3,4.7 -2,0 -3.9,-0.8 -5.3,-2.3 z"
     id="path843-2"
     sodipodi:nodetypes="ccsssssccsssssc"
     style="fill:#283862" />
  <path
     class="b"
     d="m 47.4,19.5 h 0.9 v 3.1 c 0,0.8 0.5,1.4 1.2,1.4 0.7,0 1.1,-0.6 1.1,-1.4 v -3.1 h 0.8 v 3.1 c 0,2.8 -4,2.8 -4,0 z"
     id="path867-6"
     sodipodi:nodetypes="ccsssccscc"
     style="fill:#808285;stroke-width:1.02349" />
</svg>
