<svg xmlns="http://www.w3.org/2000/svg" viewBox="0 0 116.17 25.25"><defs><style>.a{fill:#283862;}.b{fill:#808285;}.c,.d{fill:#ededee;}.c,.d,.e,.i{stroke:#283862;}.c,.d,.e,.g{stroke-width:1.41px;}.c{fill-rule:evenodd;}.e,.g,.h,.i{fill:none;}.f{fill:#a7acb8;}.g,.h{stroke:#a7acb8;}.g,.h,.i{stroke-linecap:round;}.h,.i{stroke-width:0.7px;}</style></defs><path class="a" d="M30.69.9h5.52c3.56,0,5.16,2.12,5.16,5,0,3.22-2.12,4.82-5.4,4.82h-1.6V15.1H30.69Zm4.82,6.58c1.22,0,1.92-.56,1.92-1.62,0-.88-.54-1.62-1.92-1.62H34.37V7.48Z"/><path class="a" d="M43.37.9h5.68c3.58,0,5.18,2.12,5.18,5a4.37,4.37,0,0,1-2.44,4.24L55,15.1H50.61l-2.68-4.34h-.88V15.1H43.37Zm5,6.58c1.2,0,1.88-.56,1.88-1.62,0-.88-.5-1.62-1.88-1.62H47.05V7.48Z"/><path class="a" d="M56.83.9h9.44V4.28H60.51V6.42H65V9.66h-4.5v2.06h6.18V15.1H56.83Z"/><path class="a" d="M68,13l2.16-2.64A4.79,4.79,0,0,0,73.43,12c.88,0,1.22-.48,1.22-.92s-.28-.86-1.8-1.36C70.69,8.94,68.53,7.9,68.53,5c0-2.42,2-4.24,4.74-4.3a7.28,7.28,0,0,1,5,1.9l-2.1,2.7A4.57,4.57,0,0,0,73.49,4c-.68,0-1,.34-1,.84s.3.86,1.74,1.42c2.52,1,4.42,1.58,4.42,4.32,0,3.56-3,4.71-5.36,4.71A7.3,7.3,0,0,1,68,13Z"/><path class="a" d="M79.8,13,82,10.38A4.82,4.82,0,0,0,85.21,12c.88,0,1.22-.48,1.22-.92s-.28-.86-1.8-1.36C82.47,8.94,80.3,7.9,80.3,5c0-2.42,2-4.24,4.75-4.3a7.28,7.28,0,0,1,5,1.9L88,5.3A4.57,4.57,0,0,0,85.27,4c-.68,0-1,.34-1,.84s.3.86,1.74,1.42c2.52,1,4.42,1.58,4.42,4.32,0,3.56-3,4.71-5.36,4.71A7.36,7.36,0,0,1,79.8,13Z"/><path class="a" d="M95.33,4.28H91.78V.9h11V4.28H99.23V15.1h-3.9Z"/><path class="a" d="M107.39.9H111l5.14,14.2h-4l-.72-2.3h-4.56l-.73,2.3h-4Zm3.12,8.72-1.28-4.1h0l-1.28,4.1Z"/><path class="b" d="M30.24,19.59h.85l1.64,3h0l1.64-3h.85v5h-.85V21.23h0L33,23.6h-.56L31.1,21.23h0v3.33h-.85Z"/><path class="b" d="M38.06,19.59h.83l1.86,5h-.88l-.38-1.07h-2l-.37,1.07h-.88Zm1.18,3.17-.76-2.16h0l-.75,2.16Z"/><path class="b" d="M41.73,19.59h.84L45,23.16h0V19.59h.84v5H45l-2.4-3.51h0v3.51h-.85Z"/><path class="b" d="M47.21,22.52V19.59h.84v2.86c0,.79.42,1.37,1.13,1.37s1.15-.51,1.15-1.37V19.59h.84v2.93a2,2,0,1,1-4,0Z"/><path class="b" d="M52.52,19.59h3.25v.75h-2.4v1.49h2v.76h-2v2h-.85Z"/><path class="b" d="M57.8,19.59h.83l1.86,5h-.88l-.38-1.07h-2l-.37,1.07H56ZM59,22.76l-.76-2.16h0l-.75,2.16Z"/><path class="b" d="M61,22.09a2.39,2.39,0,0,1,2.49-2.56,2.52,2.52,0,0,1,2,.95l-.62.53a1.66,1.66,0,0,0-1.34-.68,1.61,1.61,0,0,0-1.61,1.76,1.6,1.6,0,0,0,1.62,1.72,1.72,1.72,0,0,0,1.34-.68l.62.53a2.42,2.42,0,0,1-2,.94A2.38,2.38,0,0,1,61,22.09Z"/><path class="b" d="M67.55,20.34H66.14v-.75h3.68v.75H68.39v4.22h-.84Z"/><path class="b" d="M70.79,22.52V19.59h.84v2.86c0,.79.42,1.37,1.13,1.37s1.14-.51,1.14-1.37V19.59h.85v2.93a2,2,0,1,1-4,0Z"/><path class="b" d="M76.1,19.59h1.83a1.51,1.51,0,0,1,1.71,1.61,1.44,1.44,0,0,1-1.11,1.51l1.29,1.85h-1l-1.19-1.77H77v1.77H76.1ZM77.75,22c.68,0,1-.35,1-.84s-.34-.85-1-.85H77V22Z"/><path class="b" d="M81,19.59h.85v5H81Z"/><path class="b" d="M83.26,19.59h.84l2.43,3.57h0V19.59h.84v5h-.86l-2.4-3.51h0v3.51h-.85Z"/><path class="b" d="M88.59,22.08a2.39,2.39,0,0,1,2.48-2.55,2.65,2.65,0,0,1,1.94.82l-.6.52a1.85,1.85,0,0,0-1.35-.54,1.6,1.6,0,0,0-1.59,1.75,1.61,1.61,0,0,0,1.62,1.75,1.93,1.93,0,0,0,1.11-.33v-.84H91v-.75H93V24a3.11,3.11,0,0,1-2,.62A2.37,2.37,0,0,1,88.59,22.08Z"/><path class="c" d="M12.05,8.37h1.17a1.16,1.16,0,0,1,1.16,1.16,1.14,1.14,0,0,1-.14.54h0a6.36,6.36,0,0,0-.33,1.45,1.29,1.29,0,0,1-1.29,1.1,1.27,1.27,0,0,1-1.26-1.1A5.62,5.62,0,0,0,11,10.07h0a1.16,1.16,0,0,1,.48-1.57A1.11,1.11,0,0,1,12.05,8.37Z"/><path class="c" d="M9.2,5h6.9a1,1,0,0,1,.95,1,.91.91,0,0,1-.38.75h0a3.64,3.64,0,0,0-.84,1.46,1.7,1.7,0,0,1-1.59,1.1H11a1.69,1.69,0,0,1-1.6-1.13,3.18,3.18,0,0,0-.81-1.43h0a.94.94,0,0,1-.18-1.32A.91.91,0,0,1,9.2,5Z"/><rect class="d" x="6.66" y="0.7" width="11.92" height="5.11" rx="1.7"/><rect class="e" x="0.7" y="0.7" width="23.84" height="23.84" rx="5.11"/><circle class="a" cx="6.24" cy="19.86" r="0.85"/><circle class="a" cx="18.16" cy="18.16" r="0.85"/><circle class="f" cx="19.86" cy="19.86" r="0.85"/><circle class="f" cx="10.5" cy="17.31" r="0.85"/><line class="g" x1="12.62" y1="15.18" x2="12.62" y2="21.14"/><line class="h" x1="10.5" y1="22.42" x2="7.68" y2="21.73"/><line class="i" x1="10.5" y1="20.71" x2="8.79" y2="19.01"/><line class="h" x1="14.72" y1="20.59" x2="15.61" y2="18.16"/><line class="i" x1="16.46" y1="20.71" x2="17.48" y2="19.61"/><line class="h" x1="18.16" y1="21.57" x2="14.73" y2="22.49"/></svg>